<svg width="22" height="21" viewBox="0 0 22 21" fill="none" xmlns="http://www.w3.org/2000/svg">
<g opacity="0.08">
<path d="M19.615 20.8782C19.3719 20.8794 19.1309 20.8325 18.9059 20.7404C18.6809 20.6482 18.4764 20.5126 18.304 20.3412L1.28598 3.32312C0.937619 2.97449 0.742 2.50176 0.742188 2.00891C0.742375 1.51607 0.93836 1.04343 1.28699 0.695068C1.63561 0.346707 2.10835 0.15118 2.6012 0.151367C3.09404 0.151555 3.56662 0.34754 3.91498 0.696167L20.931 17.7051C21.1928 17.9644 21.3715 18.2959 21.4442 18.6572C21.5169 19.0185 21.4803 19.3933 21.3391 19.7338C21.1979 20.0742 20.9585 20.3649 20.6515 20.5687C20.3444 20.7725 19.9835 20.8803 19.615 20.8782V20.8782Z" fill="#242993"/>
<path d="M2.60099 20.8782C2.23261 20.8799 1.87203 20.7718 1.56526 20.5679C1.25848 20.3639 1.01941 20.0733 0.878457 19.7329C0.737508 19.3926 0.701085 19.0179 0.773843 18.6567C0.846602 18.2956 1.02525 17.9643 1.287 17.7051L18.305 0.696167C18.6533 0.347805 19.1258 0.1521 19.6185 0.1521C20.1111 0.1521 20.5836 0.347805 20.932 0.696167C21.2803 1.04453 21.4761 1.51699 21.4761 2.00964C21.4761 2.5023 21.2803 2.97476 20.932 3.32312L3.91599 20.3412C3.74296 20.5129 3.53772 20.6487 3.31205 20.7408C3.08639 20.833 2.84474 20.8797 2.60099 20.8782V20.8782Z" fill="#242993"/>
</g>
</svg>
